<svg width="136" height="136" version="1.1" viewBox="0 0 136 136" xmlns="http://www.w3.org/2000/svg">
  <path d="m68 133c35.801 0 65-29.2 65-65.001 0-35.8-29.199-65-65-65-35.801 0-65 29.2-65 65 0 35.801 29.199 65.001 65 65.001"/>
  <path d="m51.038 90.982c0.07215 0.06586 0.14499 0.13172 0.21696 0.19662 0.66587 0.47749 1.1479 1.1487 1.7856 1.661 1.9804 1.5894 4.2071 2.4533 6.7592 2.6112 6.0515 0.37289 11.323-4.1793 12.005-10.162 0.0339-0.29154 0.02228-0.585 0.02228-0.87847 9.44e-4 -18.01 9.44e-4 -36.02 9.44e-4 -54.031 0-1.2155 0-1.2155 1.2097-1.2155 2.7371 0 5.4742-0.0019 8.2103 0.0019 0.25666 0 0.52495-0.04746 0.75933 0.11429 0.01453 0.01453 0.031 0.02615 0.04843 0.0368 0.13075 0.1356 0.16949 0.30896 0.20824 0.48621 1.0489 4.8534 3.603 8.7266 7.6108 11.652 0.24988 0.18208 0.46006 0.41163 0.69929 0.60534 0.17434 0.14819 0.34868 0.29637 0.52398 0.44359 0.64602 0.36708 1.1022 0.95788 1.664 1.4257 2.216 1.846 4.7168 3.1197 7.5072 3.8374 0.24602 0.06296 0.52592 0.05908 0.70414 0.29153 0.0126 0.01647 0.0281 0.02906 0.0455 0.03875 0.16369 0.17434 0.13657 0.39322 0.13657 0.60243 3e-3 3.1749 5e-3 6.3507 0 9.5256-9.4e-4 0.72641-0.0988 0.76321-0.83198 0.76418-2.3264 0.0038-4.6103-0.30993-6.8718-0.8281-3.8858-0.88815-7.4733-2.4688-10.8-4.6538-0.1724-0.11332-0.35643-0.35739-0.54141-0.27313-0.23536 0.10654-0.11139 0.40969-0.11139 0.62277-0.0058 8.9396 0.0339 17.879-0.0184 26.818-0.03583 6.25-2.0233 11.841-6.1144 16.604-4.3468 5.0587-9.8675 7.9963-16.495 8.805-5.1073 0.62471-9.9535-0.29928-14.553-2.5715-0.74413-0.36902-1.4561-0.79614-2.1209-1.2978-0.2092-0.185-0.4186-0.37096-0.62858-0.55788-1.586-1.3085-2.6883-3.0025-3.7177-4.7401-1.586-2.6761-2.6148-5.5643-3.1164-8.6355-0.28708-1.756-0.4339-3.5265-0.33676-5.3008 0.31274-5.725 2.2382-10.831 5.9297-15.248 3.0971-3.7047 6.9627-6.2916 11.52-7.8462 1.9017-0.64892 3.864-1.0528 5.8742-1.1942 0.37289-0.02615 0.74094-0.11526 1.1187-0.09104 0.17821 0.01065 0.36126-0.0078 0.51236 0.11719 0.01743 0.01453 0.03584 0.02712 0.05618 0.03681 0.1046 0.18015 0.07942 0.37966 0.07942 0.57337 2e-3 3.2214 9.45e-4 6.4437 9.45e-4 9.666 0 0.11332-0.0029 0.2276-0.0087 0.34092-0.01549 0.32446-0.18015 0.431-0.48524 0.3448-0.88137-0.25086-1.787-0.36611-2.6974-0.41454-1.4124-0.07555-2.8045 0.12688-4.1254 0.61405-4.4292 1.6339-7.1177 4.8059-7.6791 9.4791-0.55343 4.6064 1.2639 8.2907 5.0953 10.943 0.32107 0.22179 0.65057 0.43003 0.94994 0.68088" fill="#fff"/>
  <path d="m42.696 102.21c0.17095-0.0465 0.26829 0.0901 0.38752 0.16271 2.8808 1.756 5.9885 2.9037 9.3168 3.4393 1.6746 0.26926 3.3661 0.38258 5.0607 0.29541 5.6679-0.29541 10.737-2.1792 15.124-5.8035 4.2209-3.4868 7.0258-7.8946 8.4292-13.187 0.44262-1.6707 0.68766-3.3734 0.77483-5.1013 0.05133-0.99372 0.04649-1.9855 0.04649-2.9783 0.0029-8.5193 2e-3 -17.039 2e-3 -25.557v-0.58112c0.22277-0.06005 0.32252 0.10557 0.44553 0.18983 3.0335 2.0766 6.3168 3.6146 9.8617 4.5899 1.9487 0.53658 3.9255 0.89299 5.9401 1.0693 0.84554 0.07458 1.692 0.06392 2.5366 0.12494 0.36998 0.02712 0.37385 0.01356 0.3787-0.37386 5e-3 -0.40679 2e-3 -0.81358 2e-3 -1.2213 0-2.8824-9.4e-4 -5.7657 0-8.6491 0-0.17918 0.0106-0.35739 0.0165-0.53657 0.75934 0.0862 1.508 0.24988 2.2712 0.30702 0.47168 0.03584 0.94239 0.07943 1.4141 0.0649 0.23438-0.0078 0.3322 0.07457 0.30605 0.30896-0.0106 0.09685-9.4e-4 0.19564-9.4e-4 0.2925v12.51c0 0.08136 2e-3 0.16272-9.5e-4 0.24407-9e-3 0.3632-0.01 0.37095-0.39322 0.36998-1.3046-0.0038-2.6054-0.0891-3.8974-0.26053-2.6402-0.34965-5.2059-0.99372-7.6893-1.9632-2.3739-0.92593-4.6141-2.1075-6.7149-3.5526-0.12881-0.0891-0.26441-0.17143-0.46587-0.30121v0.585c0 9.1053 0.0068 18.21-0.0029 27.314-0.0049 4.8524-1.262 9.3619-3.85 13.473-3.1265 4.9667-7.4675 8.4612-12.982 10.465-3.3473 1.2165-6.8118 1.6833-10.37 1.4208-6.0028-0.44262-11.197-2.7352-15.616-6.804-0.11884-0.10848-0.22005-0.23633-0.32969-0.35642" fill="#eb1654"/>
  <path d="m82.007 29.28c-0.17918 0.0087-0.35739 0.02518-0.53464 0.02518-2.9337 9.66e-4 -5.8665 0-8.7992 0-0.67992 0-0.67992 0-0.67992 0.65861 0 17.916-0.0038 35.832 0.0038 53.749 9.45e-4 1.2455-0.09201 2.4727-0.48136 3.6592-1.3773 4.1948-4.1889 6.958-8.4883 7.9391-4.6122 1.0518-8.528-0.35545-11.644-3.9303-0.0522-0.05908-0.08649-0.13366-0.12862-0.20242 0.89067 0.35449 1.779 0.7109 2.7263 0.8988 3.0067 0.59469 5.8388 0.13462 8.447-1.4732 3.0112-1.8567 4.7894-4.5754 5.4132-8.0476 0.11913-0.65667 0.13753-1.325 0.13753-1.9952-0.0038-17.95-0.0029-35.9-9.44e-4 -53.85 0-0.83682-0.11622-0.73222 0.71672-0.73222 4.1386-0.0039 8.2781-0.0019 12.417-0.0019 0.09783 0 0.19564-0.0019 0.29347 0 0.42326 0.0068 0.431 0.0077 0.42907 0.43681-0.0049 0.95886-0.01647 1.9187 0.17336 2.8659" fill="#0cbac6"/>
  <path d="m59.852 58.718c-2.5279 0.08426-5.0015 0.48524-7.407 1.2843-3.4725 1.1545-6.5588 2.9637-9.2504 5.4451-3.5309 3.2543-5.9404 7.2011-7.2562 11.81-0.46887 1.6436-0.74113 3.324-0.86084 5.0325-0.07177 1.0257-0.09375 2.0523-0.03903 3.0732 0.15206 2.8407 0.74006 5.5933 1.821 8.2336 1.2084 2.9531 2.899 5.5904 5.0987 7.9023 0.04349 0.0455 0.07361 0.10461 0.10983 0.15691-0.50044-0.21405-0.90103-0.57822-1.3189-0.9085-4.1061-3.2553-7.0009-7.359-8.593-12.361-0.55429-1.7395-0.89939-3.5216-1.0676-5.3434-0.12194-1.3192-0.13782-2.6383-0.05182-3.9516 0.19768-3.0286 0.91459-5.9391 2.1664-8.7111 1.3071-2.8959 3.0903-5.4655 5.3591-7.6873 2.6415-2.5889 5.702-4.527 9.188-5.7803 2.1854-0.78646 4.4342-1.263 6.7541-1.4325 1.6794-0.123 3.3485-0.08523 5.0173 0.11235 0.22664 0.02712 0.35932 0.07264 0.35449 0.34092-0.01743 0.92689-0.01743 1.8557-0.02422 2.7836" fill="#0cbac6"/>
  <path d="m51.038 90.982c-1.0201-0.46006-1.9012-1.1245-2.7008-1.8935-2.0082-1.9342-3.2044-4.2916-3.5145-7.0626-0.65037-5.8122 3.0156-10.829 8.1045-12.384 2.173-0.66346 4.3486-0.68863 6.5375-0.09976 0.12204 0.03293 0.24213 0.08524 0.37676 0.0494 0.07264-0.17434 0.0368-0.35545 0.0368-0.53076 0.0029-3.2582 9.44e-4 -6.5144 0.0029-9.7716 0-0.17822 0.01743-0.35643 0.02712-0.53464 1.2572-0.08524 2.5046 0.02712 3.7502 0.16659 0.19565 0.02228 0.24892 0.11332 0.24311 0.28378-0.0029 0.09782 0 0.19564 0 0.29347 0 4.3149 9.45e-4 8.6297-2e-3 12.945 0 0.15884 0.04358 0.32543-0.06005 0.49589-0.56757-0.10654-1.1254-0.27797-1.7037-0.35932-3.3337-0.46684-6.3407 0.31381-8.9811 2.3933-2.3204 1.8276-3.7473 4.2287-4.2274 7.1391-0.50868 3.0858 0.12998 5.9488 1.9055 8.5425 0.07264 0.10558 0.13647 0.21792 0.20514 0.32737" fill="#eb1654"/>
  <path d="m90.574 42.06c-1.2552-0.74094-2.3536-1.6785-3.3647-2.7187-2.7119-2.7904-4.4262-6.1037-5.1517-9.9275-0.0058-0.03196-9.44e-4 -0.06392-2e-3 -0.09685 1.17-0.06683 2.3419-0.0077 3.5129-0.03099 0.20726-0.0048 0.29928 0.07748 0.27991 0.28766-0.0077 0.08039 0 0.16175-2e-3 0.2431-0.06005 3.2814 0.9143 6.2791 2.5143 9.1014 0.5695 1.0083 1.2543 1.939 1.9991 2.8243 0.08232 0.09685 0.19855 0.17434 0.21405 0.31768" fill="#eb1654"/>
  <path d="m100.97 48.058c-3.3366-0.71284-6.2723-2.217-8.8176-4.4824-0.37483-0.33415-0.76031-0.65958-1.0576-1.0712 0.12398-0.01259 0.21405 0.06296 0.3109 0.11913 2.0223 1.1555 4.187 1.9167 6.4834 2.2954 0.89493 0.14819 1.7996 0.24504 2.7119 0.23632 0.37966-0.0029 0.38935 0.0097 0.38935 0.37289-9.4e-4 0.84263-0.0126 1.6862-0.0203 2.5298" fill="#0cbac6"/>
</svg>