<svg width="136" height="136" fill="none" version="1.1" viewBox="0 0 136 136" xmlns="http://www.w3.org/2000/svg">
 <g clip-rule="evenodd" fill-rule="evenodd" stroke-width="2.6086">
  <path d="m61.997 3.4331h11.522c15.825 0 25.072 2.3243 33.282 6.7256 8.2091 4.4013 14.687 10.83 19.039 19.039 4.4013 8.2091 6.7256 17.457 6.7256 33.282v11.473c0 15.825-2.3243 25.072-6.7256 33.282-4.4013 8.2091-10.83 14.688-19.039 19.039-8.2091 4.4013-17.457 6.7256-33.282 6.7256h-11.473c-15.825 0-25.072-2.3243-33.282-6.7256-8.2091-4.4013-14.687-10.83-19.039-19.039-4.4013-8.2091-6.7256-17.457-6.7256-33.282v-11.473c0-15.825 2.3243-25.072 6.7256-33.282 4.4013-8.2093 10.83-14.688 19.039-19.039 8.1598-4.4013 17.457-6.7256 33.232-6.7256z" fill="#0068ff"/>
  <path d="m132.56 72.06v1.8934c0 15.825-2.324 25.072-6.7253 33.282-4.4013 8.2091-10.83 14.687-19.039 19.039-8.2091 4.4013-17.457 6.7256-33.282 6.7256h-11.473c-12.949 0-21.494-1.5563-28.67-4.5333l-11.83-12.182z" fill="#001a33" opacity=".12"/>
  <path d="m22.86 116.71c6.0596 0.6699 13.636-1.0581 19.015-3.6696 23.359 12.911 59.872 12.294 81.974-1.8503 0.8572-1.2858 1.658-2.623 2.4012-4.0092 4.4175-8.2391 6.7501-17.52 6.7501-33.403v-11.515c0-15.883-2.3326-25.164-6.7501-33.403-4.3676-8.2391-10.869-14.691-19.109-19.109-8.2391-4.4173-17.52-6.7501-33.403-6.7501h-11.564c-13.527 0-22.308 1.7028-29.686 4.9536-0.4033 0.36114-0.79903 0.72846-1.1864 1.1019-21.646 20.866-23.291 66.098-4.9364 90.668 0.02048 0.03626 0.04315 0.07278 0.06809 0.10982 2.8291 4.1691 0.09926 11.465-4.1692 15.733-0.69486 0.64538-0.4467 1.0424 0.5956 1.1415z" fill="#fff"/>
 </g>
 <g fill="#0068ff" stroke-width="2.6086">
  <path d="m56.209 47.347h-25.369v5.4398h17.605l-17.358 21.512c-0.5439 0.7912-0.93937 1.5331-0.93937 3.2144v1.3847h23.935c1.1869 0 2.1761-0.98894 2.1761-2.1759v-2.9178h-18.495l16.319-20.473c0.2473-0.2966 0.69233-0.8405 0.89033-1.0878l0.09887-0.14843c0.93963-1.3847 1.1374-2.5716 1.1374-4.0056z"/>
  <path d="m88.5 78.898h3.6101v-31.551h-5.4398v29.721c0 0.9892 0.7912 1.8297 1.8297 1.8297z"/>
  <path d="m69.906 54.37c-6.8245 0-12.363 5.5387-12.363 12.363s5.5387 12.363 12.363 12.363 12.363-5.5387 12.363-12.363c0.04956-6.8245-5.4891-12.363-12.363-12.363zm0 19.633c-4.0056 0-7.2695-3.2639-7.2695-7.2695s3.2639-7.2695 7.2695-7.2695 7.2695 3.2639 7.2695 7.2695-3.2144 7.2695-7.2695 7.2695z"/>
  <path d="m108.18 54.172c-6.874 0-12.462 5.5882-12.462 12.462 0 6.874 5.588 12.462 12.462 12.462 6.8738 0 12.462-5.5882 12.462-12.462 0-6.8738-5.5882-12.462-12.462-12.462zm0 19.831c-4.0551 0-7.3191-3.2639-7.3191-7.3191s3.2639-7.3191 7.3191-7.3191c4.0551 0 7.3191 3.2639 7.3191 7.3191s-3.2639 7.3191-7.3191 7.3191z"/>
  <path d="m79.408 78.897h2.9178v-23.836h-5.0936v21.71c0 1.1374 0.98894 2.1263 2.1759 2.1263z"/>
 </g>
</svg>